<svg xmlns="http://www.w3.org/2000/svg" version="1.1" xmlns:xlink="http://www.w3.org/1999/xlink" xmlns:svgjs="http://svgjs.dev/svgjs" width="2000" height="1250" viewBox="0 0 2000 1250"><g transform="matrix(1,0,0,1,0,0)"><svg viewBox="0 0 576 360" data-background-color="#ffffff" preserveAspectRatio="xMidYMid meet" height="1250" width="2000" xmlns="http://www.w3.org/2000/svg" xmlns:xlink="http://www.w3.org/1999/xlink"><g id="tight-bounds" transform="matrix(1,0,0,1,0,0)"><svg viewBox="0 0 576 360" height="360" width="576"><g><svg></svg></g><g><svg viewBox="0 0 576 360" height="360" width="576"><g><path d="M132.115 90l155.885-90 155.885 90v180l-155.885 90-155.885-90zM146.725 261.565l141.275 81.566 141.275-81.566v-163.13l-141.275-81.566-141.275 81.566z" fill="#3b82f6" fill-rule="nonzero" stroke="none" stroke-width="1" stroke-linecap="butt" stroke-linejoin="miter" stroke-miterlimit="10" stroke-dasharray="" stroke-dashoffset="0" font-family="none" font-weight="none" font-size="none" text-anchor="none" style="mix-blend-mode: normal" data-fill-palette-color="tertiary"></path></g><g transform="matrix(1,0,0,1,229.4957345971564,99)"><svg viewBox="0 0 117.00853080568719 162" height="162" width="117.00853080568719"><g><svg viewBox="0 0 117.00853080568719 162" height="162" width="117.00853080568719"><g><svg viewBox="0 0 117.00853080568722 162.00000000000003" height="162" width="117.00853080568719"><g><svg viewBox="0 0 117.00853080568722 162.00000000000003" height="162.00000000000003" width="117.00853080568722"><g id="textblocktransform"><svg viewBox="0 0 117.00853080568722 162.00000000000003" height="162.00000000000003" width="117.00853080568722" id="textblock"><g><svg viewBox="0 0 117.00853080568722 162.00000000000003" height="162.00000000000003" width="117.00853080568722"><g transform="matrix(1,0,0,1,0,0)"><svg width="117.00853080568722" viewBox="2.56 -36.86 27.060000000000006 37.46" height="162.00000000000003" data-palette-color="#3b82f6"><path d="M29.12-26.81L23.83-26.81Q23.54-29.33 21.48-30.73 19.42-32.12 16.3-32.12L16.3-32.12Q14.06-32.12 12.43-31.42 10.8-30.72 9.9-29.5 9-28.28 9-26.74L9-26.74Q9-25.44 9.61-24.5 10.23-23.56 11.23-22.93 12.23-22.3 13.39-21.88 14.54-21.47 15.61-21.2L15.61-21.2 19.16-20.28Q20.9-19.85 22.73-19.12 24.56-18.39 26.12-17.21 27.68-16.02 28.65-14.26 29.62-12.5 29.62-10.05L29.62-10.05Q29.62-6.96 28.03-4.56 26.44-2.17 23.43-0.78 20.42 0.6 16.16 0.6L16.16 0.6Q12.07 0.6 9.09-0.69 6.11-1.99 4.42-4.38 2.73-6.76 2.56-10.05L2.56-10.05 8.06-10.05Q8.22-8.08 9.35-6.77 10.48-5.47 12.24-4.84 14.01-4.21 16.12-4.21L16.12-4.21Q18.45-4.21 20.27-4.94 22.09-5.68 23.14-7 24.18-8.33 24.18-10.1L24.18-10.1Q24.18-11.72 23.27-12.75 22.35-13.78 20.8-14.45 19.25-15.13 17.29-15.64L17.29-15.64 13-16.81Q8.63-18 6.08-20.31 3.53-22.62 3.53-26.42L3.53-26.42Q3.53-29.56 5.24-31.91 6.94-34.25 9.85-35.56 12.77-36.86 16.42-36.86L16.42-36.86Q20.12-36.86 22.95-35.56 25.78-34.27 27.41-32 29.05-29.74 29.12-26.81L29.12-26.81Z" opacity="1" transform="matrix(1,0,0,1,0,0)" fill="#3b82f6" class="wordmark-text-0" data-fill-palette-color="primary" id="text-0"></path></svg></g></svg></g></svg></g></svg></g><g></g></svg></g></svg></g></svg></g></svg></g><defs></defs></svg><rect width="576" height="360" fill="none" stroke="none" visibility="hidden"></rect></g></svg></g></svg>